<?xml version="1.0" encoding="UTF-8" standalone="no"?>
<!-- Created with Inkscape (http://www.inkscape.org/) -->

<svg
   width="256"
   height="256"
   viewBox="0 0 256 256"
   version="1.1"
   id="svg1"
   xml:space="preserve"
   inkscape:version="1.4.2 (f4327f4, 2025-05-13)"
   sodipodi:docname="logo.svg"
   inkscape:export-filename="logo_16.png"
   inkscape:export-xdpi="6"
   inkscape:export-ydpi="6"
   xmlns:inkscape="http://www.inkscape.org/namespaces/inkscape"
   xmlns:sodipodi="http://sodipodi.sourceforge.net/DTD/sodipodi-0.dtd"
   xmlns="http://www.w3.org/2000/svg"
   xmlns:svg="http://www.w3.org/2000/svg"
   xmlns:rdf="http://www.w3.org/1999/02/22-rdf-syntax-ns#"
   xmlns:cc="http://creativecommons.org/ns#"
   xmlns:dc="http://purl.org/dc/elements/1.1/"><title
     id="title89">wincamcfg logo</title><sodipodi:namedview
     id="namedview1"
     pagecolor="#ffffff"
     bordercolor="#000000"
     borderopacity="0.25"
     inkscape:showpageshadow="2"
     inkscape:pageopacity="0.0"
     inkscape:pagecheckerboard="true"
     inkscape:deskcolor="#d1d1d1"
     inkscape:document-units="px"
     inkscape:zoom="4.2925926"
     inkscape:cx="115.43141"
     inkscape:cy="103.55047"
     inkscape:window-width="2560"
     inkscape:window-height="1369"
     inkscape:window-x="2552"
     inkscape:window-y="-8"
     inkscape:window-maximized="1"
     inkscape:current-layer="g89" /><defs
     id="defs1" /><g
     inkscape:groupmode="layer"
     id="layer2"
     inkscape:label="Background"
     style="display:inline"><rect
       style="fill:#ffffff;stroke:#000000;stroke-width:1.99222;stroke-linecap:round;stroke-linejoin:round;stroke-dasharray:none;stroke-opacity:1"
       id="rect30"
       width="254"
       height="254"
       x="0.99610895"
       y="0.99610895"
       rx="49.805447"
       inkscape:label="WhiteRectangleCurved" /></g><g
     inkscape:label="Camera"
     inkscape:groupmode="layer"
     id="layer1"
     style="display:inline"
     transform="matrix(1.0090611,0,0,0.99358544,-2.4741614,5.6942968)"><g
       id="g89"
       transform="matrix(0.42311655,0,0,0.42311655,-135.61491,-89.379788)"
       inkscape:label="logo"><path
         style="display:inline;fill:#000000;stroke:none;fill-opacity:1"
         d="m 534.14,667.62 c -7.91906,21.95564 -4.07611,62.1364 -39.83156,49.09887 -27.47029,-2.06222 -53.3977,34.23064 -34.71344,56.76988 25.85561,4.98675 52.88587,1.1054 79.28694,2.13125 53.32316,-0.19764 106.67397,0.40068 159.97931,-0.31 19.66685,-6.69857 20.6381,-51.45771 1.26672,-58.35922 -28.08006,9.64762 -28.41836,-40.5567 -25.87899,-49.18611 24.516,10.99616 53.42626,-12.56113 31.85102,-35.43467 -24.93518,-3.31402 -50.60543,-1.02003 -75.89387,-1.7 -59.96002,-10e-4 -119.96365,-0.1328 -179.87863,0.38625 -36.91941,0.71279 -52.48188,-38.98636 -47.10333,-70.3168 1.90539,-68.96017 0.51842,-137.99433 0.86019,-206.98512 -3.07179,-30.1457 -0.97367,-71.87988 34.72705,-81.27042 32.55408,-7.6334 66.24155,-1.24729 99.38182,-2.81391 69.36397,-0.30706 138.76946,0.879 208.08792,-1.1972 31.29885,-2.12136 60.37319,23.16868 58.98124,55.30126 -0.10035,64.52107 -0.19704,129.12076 -0.0929,193.63969 4.52008,12.23851 28.99397,36.04643 34.97047,30.94496 -0.20529,-76.45641 0.39717,-152.94547 -0.27047,-229.37616 -0.51312,-38.81202 -28.8302,-76.29985 -68.15289,-82.14922 -40.09379,-5.6764 -80.79805,-2.19466 -121.17987,-3.16333 -65.34815,0.33124 -130.73163,-0.74228 -196.05116,0.71212 -38.04047,0.25494 -75.00663,26.62758 -82.8003,64.67366 -6.86938,36.56641 -2.3245,74.04227 -3.54531,111.03841 0.53131,58.66242 -1.2277,117.39954 1.2498,176.00063 1.72579,39.43004 31.51675,76.82943 71.94511,81.04708 30.73071,5.19302 61.90213,0.70397 92.80509,0.5281"
         id="path21"
         inkscape:label="cam_outline" /><path
         style="fill:#000000;stroke:none;fill-opacity:1"
         d="m 753.14,561.29 c -12.17287,2.73082 -16.86434,17.73548 -11.62234,28.18806 4.8085,9.76576 14.6485,15.61412 21.99462,23.3215 16.90179,15.17264 33.29367,30.95237 50.5321,45.72419 7.70438,5.48963 22.2667,16.01657 9.57287,24.78445 -8.86718,7.94569 -18.11361,15.43926 -26.57191,23.8464 -18.95178,17.45271 -39.95886,33.19951 -55.37215,54.0699 -7.93633,12.91926 2.87841,32.56074 18.46681,31.0455 16.04453,-1.62874 24.86299,-16.95944 36.18231,-26.49779 25.98839,-24.385 51.90652,-48.86948 78.50524,-72.57677 7.5789,-6.90934 13.1806,-19.32879 5.74017,-28.39494 -7.95828,-9.06187 -18.20021,-15.80736 -26.56664,-24.51655 -26.08256,-24.67943 -52.73659,-48.75181 -79.03645,-73.19338 -5.87505,-5.28549 -14.04831,-8.37629 -21.82463,-5.80057 z"
         id="path26"
         inkscape:label="prompt" /><path
         style="display:inline;fill:#000000;stroke:none;fill-opacity:1"
         d="m 584.14,303.06 c -51.05043,5.67305 -95.92094,42.21205 -114.65102,89.61845 -23.67069,56.01423 -11.92857,126.5353 33.25144,168.45347 44.17711,41.47228 114.69551,51.92473 168.48411,23.52208 55.55197,-28.98112 91.13626,-94.70308 79.15995,-157.1118 -12.28142,-71.94367 -81.87432,-130.32919 -155.4773,-125.51196 -3.6008,0.20578 -7.1935,0.55305 -10.76718,1.03976"
         id="path22"
         inkscape:label="cam_outer_lense" /><path
         style="display:inline;fill:#ffffff;fill-opacity:1;stroke:none"
         d="m 591.14,339.93 c 42.28631,-5.62672 85.80995,16.72165 107.65612,53.01927 23.06792,36.26776 23.59495,85.89653 -0.73612,121.70073 -18.89059,28.31356 -51.09461,46.74819 -84.92,49.72 -48.56095,5.00249 -98.72468,-25.85301 -114.54994,-72.36466 -17.29203,-47.12937 -0.0286,-104.7182 41.56254,-133.31985 14.9323,-10.69627 32.84349,-16.63338 50.9874,-18.75549 z"
         id="path23"
         inkscape:label="cam_inner_lense1" /><path
         style="display:inline;fill:#000000;stroke:none;fill-opacity:1"
         d="m 600.14,364.16 c -22.83715,0.81038 -45.45423,10.18288 -60.93785,27.2077 -21.04823,21.57944 -28.72296,54.6191 -19.79675,83.35182 9.59765,34.09823 40.47631,62.06736 76.32259,64.72906 26.07748,2.23425 53.39812,-6.83385 71.16992,-26.48485 29.83876,-30.98098 31.98084,-84.01957 4.57308,-117.20662 C 654.51854,374.63742 626.84104,363.69856 600.14,364.17"
         id="path24"
         inkscape:label="cam_inner_lense2" /><path
         style="display:inline;fill:#ffffff;fill-opacity:1;stroke:none"
         d="m 569.14,396.96 c 6.13815,-0.95996 12.81104,0.86281 17.1146,5.46798 7.49808,7.85818 8.37774,21.34706 1.54337,29.89201 -4.91855,6.15413 -13.53956,8.3585 -21.07608,6.89936 -6.59958,-1.2419 -12.05192,-6.34183 -14.33779,-12.57186 -3.15081,-8.08513 -1.68814,-18.20582 4.79309,-24.26511 3.24573,-3.07925 7.56161,-4.84577 11.96281,-5.42238 z"
         id="path25"
         inkscape:label="cam_whitedot" /></g></g><metadata
     id="metadata89"><rdf:RDF><cc:Work
         rdf:about=""><dc:title>wincamcfg logo</dc:title><dc:date>11/12/2025</dc:date><dc:creator><cc:Agent><dc:title>andrewj-t</dc:title></cc:Agent></dc:creator></cc:Work></rdf:RDF></metadata></svg>
